<?xml version="1.0" standalone="no"?><!DOCTYPE svg PUBLIC "-//W3C//DTD SVG 1.1//EN" "http://www.w3.org/Graphics/SVG/1.1/DTD/svg11.dtd"><svg t="1759063212344" class="icon" viewBox="0 0 1024 1024" version="1.1" xmlns="http://www.w3.org/2000/svg" p-id="7553" xmlns:xlink="http://www.w3.org/1999/xlink" width="200" height="200"><path d="M358.497538 558.384534a7.13108 7.13108 0 0 0-1.372751 2.405927l-42.772032 161.912368a28.387046 28.387046 0 0 0 6.82763 26.73252 26.335144 26.335144 0 0 0 18.813914 7.896931c2.319227 0 4.703478-0.27455 6.979355-0.903126l155.734989-43.863007c0.24565 0 0.368475 0.195075 0.585226 0.195075a6.647005 6.647005 0 0 0 4.862428-2.059126l416.492655-429.786665c12.390884-12.795484 19.153489-30.207747 19.153489-49.158936 0-21.465491-8.814506-42.930981-24.276018-58.854893l-39.340153-40.684005c-15.439836-15.938362-36.276752-25.063543-57.048642-25.063544-18.358738 0-35.221901 6.979355-47.641685 19.76039l-416.377055 429.99619c-0.44795 0.4046-0.296225 1.004276-0.62135 1.473901m525.445734-319.533084l-41.35593 42.670881-67.084174-70.292076 40.77793-42.114556c6.444705-6.675905 18.943964-5.714979 26.327919 1.994101l39.354604 40.64788c4.074903 4.233853 6.45193 9.891032 6.45193 15.447061 0.007225 4.551753-1.589501 8.662781-4.472279 11.646709M432.561067 565.139914l300.552995-310.176702 67.069724 70.349876-299.960545 309.584252-67.662174-69.757426z m-54.77999 125.765667l21.754491-82.300035 57.944542 59.808594-79.699033 22.491441z m509.695223-281.731856c-15.764962 0-29.644197 13.228985-29.716447 29.716446v402.16547c0 21.039215-16.530812 37.302702-36.927002 37.302702H180.234982c-20.39619 0-35.554251-16.306837-35.554251-37.302702V179.180131c0-21.039215 15.158061-36.869202 35.554251-36.869202h439.634347c15.829987 0 28.726621-14.558386 28.726621-30.901347s-12.889409-30.373922-28.726621-30.373923H175.849404c-49.628561 0-90.912242 42.403556-90.912242 93.664969v670.870641c0 51.246963 41.25478 94.373019 90.912242 94.373019h649.3329c49.722486 0 91.967092-43.126057 91.967093-94.373019V438.702321c-0.050575-16.335737-13.908135-29.528597-29.673097-29.528596" p-id="7554"></path></svg>