<?xml version="1.0" standalone="no"?><!DOCTYPE svg PUBLIC "-//W3C//DTD SVG 1.1//EN" "http://www.w3.org/Graphics/SVG/1.1/DTD/svg11.dtd"><svg t="1759051828056" class="icon" viewBox="0 0 1024 1024" version="1.1" xmlns="http://www.w3.org/2000/svg" p-id="6569" xmlns:xlink="http://www.w3.org/1999/xlink" width="200" height="200"><path d="M535.376 838.544c-25.152-13.872-66.096-13.776-91.104 0L267.536 935.84c-50.256 27.696-83.232 2.4-73.632-56.064l33.744-206.064c4.8-29.376-7.92-70.08-28.176-90.72L56.528 436.976c-40.704-41.52-27.84-82.176 28.128-90.72l197.568-30c28.128-4.32 61.2-29.568 73.728-56.112L444.32 72.704c25.152-53.328 66.048-53.136 91.056 0l88.32 187.488c12.624 26.688 45.84 51.84 73.776 56.112l197.568 30.048c56.256 8.544 68.64 49.296 28.176 90.672l-142.992 145.92c-20.352 20.784-32.928 61.584-28.176 90.768l33.744 206.064c9.6 58.656-23.568 83.616-73.632 56.064l-176.784-97.296z" fill="#FFC107" p-id="6570"></path></svg>