<?xml version="1.0" standalone="no"?><!DOCTYPE svg PUBLIC "-//W3C//DTD SVG 1.1//EN" "http://www.w3.org/Graphics/SVG/1.1/DTD/svg11.dtd"><svg t="1759113128910" class="icon" viewBox="0 0 1024 1024" version="1.1" xmlns="http://www.w3.org/2000/svg" p-id="9561" xmlns:xlink="http://www.w3.org/1999/xlink" width="200" height="200"><path d="M815.36 184.96V128a36.48 36.48 0 0 1 10.24-26.88 37.76 37.76 0 0 1 52.48 0 40.96 40.96 0 0 1 11.52 26.88v172.16a40.32 40.32 0 0 1-37.12 37.12h-173.44a40.32 40.32 0 0 1-26.88-11.52 37.76 37.76 0 0 1 0-52.48 35.84 35.84 0 0 1 26.88-10.24h108.8a372.48 372.48 0 0 0-453.12-75.52A367.36 367.36 0 0 0 170.24 364.8a374.4 374.4 0 0 0-19.84 242.56 369.92 369.92 0 0 0 132.48 202.24A375.04 375.04 0 0 0 512 888.32a368.64 368.64 0 0 0 263.68-108.8A376.32 376.32 0 0 0 885.12 512H960A448 448 0 1 1 136.32 270.08a438.4 438.4 0 0 1 192-164.48 444.16 444.16 0 0 1 256-32 455.68 455.68 0 0 1 230.4 111.36z" p-id="9562"></path></svg>